<svg width="100" height="100" viewBox="0 0 100 100" fill="none" xmlns="http://www.w3.org/2000/svg">
<path d="M41.5302 42.2C38.9102 39.58 28.6002 29.27 25.9902 26.66" stroke="#FBB917" stroke-width="4" stroke-miterlimit="10" stroke-linecap="round" stroke-linejoin="round"/>
<path d="M58.8801 26.33C64.2901 20.92 68.6101 16.6 74.0201 11.19C56.2901 -0.490009 32.2101 1.46999 16.6001 17.08C0.990114 32.69 -0.959887 56.76 10.7101 74.5C15.6001 69.61 20.8101 64.4 25.7101 59.5" stroke="#FBB917" stroke-width="4" stroke-miterlimit="10" stroke-linecap="round" stroke-linejoin="round"/>
<path d="M88.56 25.73L25.25 89.04C42.99 100.71 67.06 98.74 82.66 83.14C98.26 67.54 100.23 43.47 88.56 25.73Z" fill="#FBB917" stroke="#FBB917" stroke-width="4" stroke-miterlimit="10" stroke-linecap="round" stroke-linejoin="round"/>
<path d="M95.0803 4.64999L61.7803 37.96" stroke="#FBB917" stroke-width="4" stroke-miterlimit="10" stroke-linecap="round" stroke-linejoin="round"/>
<path d="M37.3304 62.41L5.36035 94.38" stroke="#FBB917" stroke-width="4" stroke-miterlimit="10" stroke-linecap="round" stroke-linejoin="round"/>
<path d="M49.7202 26.96L49.7302 38.58" stroke="#FBB917" stroke-width="4" stroke-miterlimit="10" stroke-linecap="round" stroke-linejoin="round"/>
<path d="M26.6299 50.05L37.9899 50.04" stroke="#FBB917" stroke-width="4" stroke-miterlimit="10" stroke-linecap="round" stroke-linejoin="round"/>
<path d="M49.5799 53.2C51.2091 53.2 52.5299 51.8792 52.5299 50.25C52.5299 48.6207 51.2091 47.3 49.5799 47.3C47.9506 47.3 46.6299 48.6207 46.6299 50.25C46.6299 51.8792 47.9506 53.2 49.5799 53.2Z" fill="#FBB917"/>
</svg>
